<svg version="1.1" id="Layer_1" xmlns="http://www.w3.org/2000/svg" xmlns:xlink="http://www.w3.org/1999/xlink" x="0px" y="0px"
	 width="100%" viewBox="0 0 500 500" enable-background="new 0 0 500 500" xml:space="preserve">
<path fill="#FFFFFE" opacity="1.000000" stroke="none" 
	d="
M69.000000,1.000001 
	C212.969009,1.000000 356.938019,1.000000 500.953491,1.000000 
	C500.953491,167.599792 500.953491,334.199585 500.953491,500.899719 
	C334.436127,500.899719 167.872162,500.899719 1.154106,500.899719 
	C1.154106,334.333435 1.154106,167.666733 1.154106,1.000000 
	C23.079369,1.000000 45.074673,1.000000 67.564140,1.387637 
	C67.811394,2.394385 67.495491,2.995368 67.327400,3.635185 
	C50.494675,67.706299 39.486599,132.516129 44.161766,199.084457 
	C46.240742,228.686325 52.403934,257.260071 68.094208,283.226562 
	C82.025604,306.282257 97.794197,327.539154 120.778419,342.329071 
	C127.584541,346.708679 135.135712,349.930450 143.451874,354.258636 
	C143.451874,342.422119 142.556152,332.359711 143.629837,322.512024 
	C146.230179,298.662079 155.352112,276.895721 167.119034,256.196594 
	C168.682892,253.445618 168.851547,251.455978 167.246094,248.539780 
	C141.936325,202.565765 123.149559,153.972549 109.421646,103.375969 
	C109.165154,102.430588 109.236847,101.396156 109.155418,100.403267 
	C133.048508,144.318375 157.002808,187.946548 184.233704,230.068314 
	C215.880951,192.993713 256.529419,169.783463 298.919312,148.992538 
	C297.930756,147.325073 297.273987,146.167023 296.570526,145.038071 
	C279.399567,117.480911 255.546417,96.608574 229.182037,78.418068 
	C184.637634,47.683971 135.786728,25.532249 85.143814,7.046637 
	C79.746033,5.076342 74.380493,3.017673 69.000000,1.000001 
M381.129608,207.126266 
	C381.274445,207.255615 381.419312,207.384949 381.236969,208.107452 
	C356.221405,242.240799 332.509430,277.245636 311.380768,313.933105 
	C295.588867,341.354004 281.291809,369.495239 270.515808,399.364746 
	C262.970612,420.278870 259.780640,441.860260 258.621185,463.889130 
	C257.826843,478.981812 255.491226,475.786041 269.173615,480.458923 
	C306.048401,493.052612 341.584259,490.360077 374.064880,467.965302 
	C405.338013,446.402985 427.303375,417.000916 441.099518,381.681122 
	C454.820129,346.554657 458.169159,309.602203 458.693695,272.350800 
	C459.297882,229.443588 454.818726,186.906357 447.712402,144.633499 
	C446.152252,135.352692 444.220642,126.134331 442.386475,116.500542 
	C440.133392,116.969254 438.507385,117.188919 436.952881,117.649788 
	C425.157898,121.146667 413.284332,124.410507 401.607574,128.268524 
	C350.107117,145.284393 300.385590,166.117554 254.668579,195.836227 
	C214.946106,221.658112 184.842026,255.152679 168.390305,300.121826 
	C160.388977,321.992615 155.979202,344.299438 159.426575,367.662048 
	C163.544373,395.568054 177.441483,418.191162 197.669815,437.157288 
	C205.099472,444.123352 213.337082,450.227692 221.491287,456.960541 
	C222.314713,455.355286 222.652649,454.952789 222.732529,454.504333 
	C229.705627,415.353302 244.714691,379.307831 264.837433,345.218140 
	C287.390808,307.010742 314.555298,272.327850 345.393372,240.533997 
	C356.734039,228.841843 368.916107,217.965790 381.129608,207.126266 
z"/>
<path fill="#78A832" opacity="1.000000" stroke="none" 
	d="
M68.750000,1.000001 
	C74.380493,3.017673 79.746033,5.076342 85.143814,7.046637 
	C135.786728,25.532249 184.637634,47.683971 229.182037,78.418068 
	C255.546417,96.608574 279.399567,117.480911 296.570526,145.038071 
	C297.273987,146.167023 297.930756,147.325073 298.919312,148.992538 
	C256.529419,169.783463 215.880951,192.993713 184.233704,230.068314 
	C157.002808,187.946548 133.048508,144.318375 109.155418,100.403267 
	C109.236847,101.396156 109.165154,102.430588 109.421646,103.375969 
	C123.149559,153.972549 141.936325,202.565765 167.246094,248.539780 
	C168.851547,251.455978 168.682892,253.445618 167.119034,256.196594 
	C155.352112,276.895721 146.230179,298.662079 143.629837,322.512024 
	C142.556152,332.359711 143.451874,342.422119 143.451874,354.258636 
	C135.135712,349.930450 127.584541,346.708679 120.778419,342.329071 
	C97.794197,327.539154 82.025604,306.282257 68.094208,283.226562 
	C52.403934,257.260071 46.240742,228.686325 44.161766,199.084457 
	C39.486599,132.516129 50.494675,67.706299 67.327400,3.635185 
	C67.495491,2.995368 67.811394,2.394385 68.029152,1.387637 
	C68.000000,1.000000 68.500000,1.000000 68.750000,1.000001 
z"/>
<path fill="#92C731" opacity="1.000000" stroke="none" 
	d="
M380.714417,206.717499 
	C368.916107,217.965790 356.734039,228.841843 345.393372,240.533997 
	C314.555298,272.327850 287.390808,307.010742 264.837433,345.218140 
	C244.714691,379.307831 229.705627,415.353302 222.732529,454.504333 
	C222.652649,454.952789 222.314713,455.355286 221.491287,456.960541 
	C213.337082,450.227692 205.099472,444.123352 197.669815,437.157288 
	C177.441483,418.191162 163.544373,395.568054 159.426575,367.662048 
	C155.979202,344.299438 160.388977,321.992615 168.390305,300.121826 
	C184.842026,255.152679 214.946106,221.658112 254.668579,195.836227 
	C300.385590,166.117554 350.107117,145.284393 401.607574,128.268524 
	C413.284332,124.410507 425.157898,121.146667 436.952881,117.649788 
	C438.507385,117.188919 440.133392,116.969254 442.386475,116.500542 
	C444.220642,126.134331 446.152252,135.352692 447.712402,144.633499 
	C454.818726,186.906357 459.297882,229.443588 458.693695,272.350800 
	C458.169159,309.602203 454.820129,346.554657 441.099518,381.681122 
	C427.303375,417.000916 405.338013,446.402985 374.064880,467.965302 
	C341.584259,490.360077 306.048401,493.052612 269.173615,480.458923 
	C255.491226,475.786041 257.826843,478.981812 258.621185,463.889130 
	C259.780640,441.860260 262.970612,420.278870 270.515808,399.364746 
	C281.291809,369.495239 295.588867,341.354004 311.380768,313.933105 
	C332.509430,277.245636 356.221405,242.240799 381.575684,207.642639 
	C382.138397,206.929443 382.283447,206.641327 382.572510,206.144394 
	C382.767914,205.722549 382.740417,205.469757 382.712891,205.216980 
	C382.416656,205.418762 382.120392,205.620544 381.577881,205.882019 
	C381.125854,206.200317 380.920135,206.458908 380.714417,206.717499 
z"/>
<path fill="#FFFFFE" opacity="1.000000" stroke="none" 
	d="
M381.824158,205.822327 
	C382.120392,205.620544 382.416656,205.418762 382.712891,205.216980 
	C382.740417,205.469757 382.767914,205.722549 382.438477,206.022919 
	C382.081543,206.070496 381.824158,205.822327 381.824158,205.822327 
z"/>
<path fill="#FFFFFE" opacity="1.000000" stroke="none" 
	d="
M380.921997,206.921875 
	C380.920135,206.458908 381.125854,206.200317 381.577881,205.882019 
	C381.824158,205.822327 382.081543,206.070496 382.215576,206.191986 
	C382.283447,206.641327 382.138397,206.929443 381.739319,207.346069 
	C381.419312,207.384949 381.274445,207.255615 380.921997,206.921875 
z"/>
</svg>